<?xml version="1.0" encoding="utf-8"?>
<!-- Svg Vector Icons : http://www.onlinewebfonts.com/icon -->
<!DOCTYPE svg PUBLIC "-//W3C//DTD SVG 1.1//EN" "http://www.w3.org/Graphics/SVG/1.1/DTD/svg11.dtd">
<svg version="1.1" xmlns="http://www.w3.org/2000/svg" xmlns:xlink="http://www.w3.org/1999/xlink" x="0px" y="0px" viewBox="0 0 1000 1000" enable-background="new 0 0 1000 1000" xml:space="preserve">
<metadata> Svg Vector Icons : http://www.onlinewebfonts.com/icon </metadata>
<g><path d="M472.8,531.3c103.6,63.5,246,140,60.5,232.3c331.7-55.1-10-240.5-120-295.1c-53.5-26.5-114.8-57-196.9-85.8C152.9,360.4,84,332.3,68,427C181.6,374.8,351.3,456.7,472.8,531.3"/><path d="M224.4,458.6c36.8,217.1,63.4,432.4,392,346.4C354.7,846.7,290.9,656.3,224.4,458.6"/><path d="M836.2,207.2c16.6,182.7-262,163-341.6,267.2C613.2,403.1,1159,374.4,836.2,207.2"/><path d="M851,390.3c-44.5,127.1-112.7,302.2-212.8,400C763.6,756.4,812.1,520.6,851,390.3"/><path d="M275,359.6c119.9,83.3,516.9-24.2,548.7-192.4c4.6-24,6.5-55.2-5.2-79.8C794.7,25.3,730,4.6,632.3,11.2C984.1,217,449.9,393.4,275,359.6"/><path d="M389.7,336.9C310,266.7,181.6,140.6,344.1,67.6C64.4,65,227.6,281.8,389.7,336.9"/><path d="M242.3,369.6C292,264.6,159.3,171.1,63.1,243.8C160.6,246.4,181.6,297.7,242.3,369.6"/><path d="M390.7,280.5c51.8-4.4,86,12.3,123.7,24.7c-51-35.4-105.4-63.7-172.3-67.4C358.4,252.1,374.5,266.3,390.7,280.5"/><path d="M681.7,206.2c-43,40-112.6,47.8-184.2,63.3C574.4,275.6,650.7,292.9,681.7,206.2"/><path d="M446.2,243.8c-26.1-27-48.6-54.1-45.6-81.1c-4.1-24.4,4.5-45.3,18.8-64.4c-29.4,7.1-52.1,19.9-60.3,45.6C349.2,182.7,399.4,213,446.2,243.8"/><path d="M447.1,190.4c45,44.4,109.8,57.3,160.6,30.5c86-45.4,24.8-91.4-35.5-129.4c-36.4-23-70.2-18.5-95.3,63.2c51.1-60.7,117.4-35.3,123.4-2.1C606.7,187.9,548.1,232.2,447.1,190.4"/><path d="M175.5,703.2c-11.6-17.2-29.1-26.5-46.1-36.3c15.7,11.3,29.3,25.6,39.6,45.4c18.7,36.2,49.7,65.5,82,89.8c71,53.1,119.6,33.9,164.4,21.9c-51.7-12.9-121.6-19.5-166.6-46.2C218.9,760.2,195.1,732.1,175.5,703.2"/><path d="M579.9,833.3c136.7,69.3,223.7,4.4,332-92.7C813.5,817.7,700.4,858.3,579.9,833.3"/><path d="M454.5,844.8c11.9,29.4,15.2,60.3,11.9,92.4c-3.3,32.6-1.7,42.2-31.9,52.8c38-1.1,43-10.9,67.1-41.6c23.3-29.6,43.6-63,59-102.2C524.9,851.6,489.3,852.7,454.5,844.8"/><path d="M627.7,865.1c-13.6-2.5-27.7-6.5-42.6-12.3c26.8,52.5,88.7,50.2,143.6,40.6C689.3,896.7,655.3,888.2,627.7,865.1"/><path d="M237.7,844.1c55.6,24.4,94.9,37.3,129.1,0.7C312.2,854.7,298.7,865.1,237.7,844.1"/></g>
</svg>