<?xml version="1.0" standalone="no"?><!-- Generator: Gravit.io --><svg xmlns="http://www.w3.org/2000/svg" xmlns:xlink="http://www.w3.org/1999/xlink" style="isolation:isolate" viewBox="0 0 961.625 730.23" width="961.625" height="730.23"><defs><clipPath id="_clipPath_Duu82jtvjZ6UDBdRjVsnUTCW31W40dA1"><rect width="961.625" height="730.23"/></clipPath></defs><g clip-path="url(#_clipPath_Duu82jtvjZ6UDBdRjVsnUTCW31W40dA1)"><rect width="961.625" height="730.23" style="fill:rgb(255,153,0)"/><g id="Group"><linearGradient id="_lgradient_14" x1="50%" y1="3.125%" x2="49.99999999999998%" y2="112.54999999999997%"><stop offset="0%" stop-opacity="1" style="stop-color:rgb(109,199,255)"/><stop offset="100%" stop-opacity="1" style="stop-color:rgb(230,171,255)"/></linearGradient><path d=" M 164.423 572.352 L 164.423 589.772 C 164.423 592.98 167.235 595.579 170.704 595.579 L 189.545 595.579 L 164.423 572.352 Z " fill="url(#_lgradient_14)"/><linearGradient id="_lgradient_15" x1="50%" y1="-1.282692307692307%" x2="49.999999999999986%" y2="100.65961538461539%"><stop offset="0%" stop-opacity="1" style="stop-color:rgb(0,0,0)"/><stop offset="99.1304347826087%" stop-opacity="1" style="stop-color:rgb(0,0,0)"/></linearGradient><path d=" M 286.889 546.22 L 286.889 473.634 C 286.877 469.954 284.362 466.68 280.609 465.457 L 280.609 464.923 C 280.609 460.121 276.383 456.213 271.189 456.213 L 176.984 456.213 C 171.79 456.213 167.564 460.121 167.564 464.923 L 167.564 465.457 C 163.811 466.68 161.296 469.954 161.283 473.634 L 161.283 508.475 C 156.09 508.475 151.863 512.383 151.863 517.186 L 151.863 592.676 C 151.863 600.681 158.906 607.193 167.564 607.193 L 283.749 607.193 C 283.972 607.193 284.195 607.187 284.421 607.179 C 291.088 606.856 296.31 601.543 296.31 595.086 L 296.31 554.931 C 296.31 550.128 292.083 546.22 286.889 546.22 Z  M 261.768 470.73 L 277.469 470.73 C 279.203 470.73 280.609 472.03 280.609 473.634 L 280.609 491.054 L 264.908 491.054 C 263.174 491.054 261.768 489.754 261.768 488.151 L 261.768 470.73 Z  M 176.984 462.02 L 271.189 462.02 C 272.923 462.02 274.329 463.32 274.329 464.923 L 173.844 464.923 C 173.844 463.32 175.25 462.02 176.984 462.02 Z  M 158.143 592.676 L 158.143 517.186 C 158.143 515.582 159.549 514.282 161.283 514.282 L 186.185 514.282 C 187.237 514.282 188.213 514.764 188.797 515.574 L 197.627 527.815 C 199.371 530.248 202.319 531.708 205.475 531.703 L 268.049 531.703 C 269.783 531.703 271.189 533.003 271.189 534.606 L 271.189 595.579 C 271.212 597.624 271.818 599.628 272.947 601.386 L 167.564 601.386 C 162.37 601.386 158.143 597.478 158.143 592.676 Z  M 290.03 595.086 C 290.03 598.399 287.364 601.218 284.092 601.378 C 282.367 601.462 280.68 600.887 279.425 599.789 C 278.172 598.696 277.464 597.172 277.469 595.579 L 277.469 534.606 C 277.469 529.804 273.242 525.896 268.049 525.896 L 205.475 525.896 C 204.416 525.896 203.437 525.411 202.85 524.598 L 194.019 512.354 C 192.277 509.928 189.335 508.471 186.185 508.475 L 167.564 508.475 L 167.564 473.634 C 167.564 472.03 168.97 470.73 170.704 470.73 L 255.488 470.73 L 255.488 488.151 C 255.488 492.953 259.715 496.861 264.908 496.861 L 280.609 496.861 L 280.609 595.579 C 280.609 597.183 282.015 598.483 283.749 598.483 C 285.484 598.483 286.889 597.183 286.889 595.579 L 286.889 552.027 C 288.624 552.027 290.03 553.327 290.03 554.931 L 290.03 595.086 Z " fill="url(#_lgradient_15)"/><linearGradient id="_lgradient_16" x1="50.000000000000014%" y1="-433.34999999999997%" x2="49.999999999999524%" y2="2217.15%"><stop offset="0%" stop-opacity="1" style="stop-color:rgb(26,109,255)"/><stop offset="100%" stop-opacity="1" style="stop-color:rgb(200,34,255)"/></linearGradient><rect x="180.124" y="479.44" width="62.803" height="5.807" transform="matrix(1,0,0,1,0,0)" fill="url(#_lgradient_16)"/><linearGradient id="_lgradient_17" x1="50.000000000000014%" y1="-633.35%" x2="49.999999999999524%" y2="2017.15%"><stop offset="0%" stop-opacity="1" style="stop-color:rgb(26,109,255)"/><stop offset="100%" stop-opacity="1" style="stop-color:rgb(200,34,255)"/></linearGradient><rect x="180.124" y="491.054" width="62.803" height="5.807" transform="matrix(1,0,0,1,0,0)" fill="url(#_lgradient_17)"/><linearGradient id="_lgradient_18" x1="50%" y1="-833.3500000000001%" x2="49.99999999999951%" y2="1817.15%"><stop offset="0%" stop-opacity="1" style="stop-color:rgb(26,109,255)"/><stop offset="100%" stop-opacity="1" style="stop-color:rgb(200,34,255)"/></linearGradient><rect x="205.245" y="502.668" width="37.682" height="5.807" transform="matrix(1,0,0,1,0,0)" fill="url(#_lgradient_18)"/><linearGradient id="_lgradient_19" x1="50%" y1="-1033.3500000000001%" x2="49.99999999999951%" y2="1617.15%"><stop offset="0%" stop-opacity="1" style="stop-color:rgb(26,109,255)"/><stop offset="100%" stop-opacity="1" style="stop-color:rgb(200,34,255)"/></linearGradient><rect x="205.245" y="514.282" width="37.682" height="5.807" transform="matrix(1,0,0,1,0,0)" fill="url(#_lgradient_19)"/></g><g id="Group"><linearGradient id="_lgradient_20" x1="50%" y1="-1.5880952380952356%" x2="49.999999999999986%" y2="101.31190476190477%"><stop offset="0%" stop-opacity="1" style="stop-color:rgb(0,0,0)"/><stop offset="97.82608695652173%" stop-opacity="1" style="stop-color:rgb(0,0,0)"/></linearGradient><path d=" M 880.908 602.64 L 880.908 586.569 C 880.908 581.252 876.824 576.926 871.806 576.926 L 857.676 576.926 C 856.444 576.929 855.334 576.139 854.87 574.93 L 842.821 543.684 C 841.289 540.41 838.133 538.344 834.684 538.355 L 817.193 538.355 L 817.193 528.712 C 817.193 523.396 813.109 519.07 808.09 519.07 L 757.758 519.07 C 754.148 509.658 745.437 502.998 735.273 502.998 L 711 502.998 L 711 528.712 C 711 540.669 718.752 550.714 729.204 553.581 L 729.204 602.64 C 725.858 602.64 723.136 605.523 723.136 609.068 L 723.136 615.497 C 723.136 619.042 725.858 621.925 729.204 621.925 L 741.614 621.925 C 743.064 631.031 750.54 637.996 759.545 637.996 C 768.55 637.996 776.023 631.031 777.477 621.925 L 823.534 621.925 C 824.984 631.031 832.46 637.996 841.465 637.996 C 850.47 637.996 857.943 631.031 859.397 621.925 L 880.908 621.925 C 884.255 621.925 886.976 619.042 886.976 615.497 L 886.976 609.068 C 886.976 605.523 884.255 602.64 880.908 602.64 Z  M 717.068 528.712 L 717.068 509.427 L 735.273 509.427 C 745.312 509.427 753.477 518.076 753.477 528.712 C 753.477 539.348 745.312 547.998 735.273 547.998 C 725.233 547.998 717.068 539.348 717.068 528.712 Z  M 759.545 631.568 C 752.852 631.568 747.409 625.802 747.409 618.711 C 747.409 611.62 752.852 605.854 759.545 605.854 C 766.238 605.854 771.681 611.62 771.681 618.711 C 771.681 625.802 766.238 631.568 759.545 631.568 Z  M 777.477 615.497 C 776.026 606.391 768.55 599.426 759.545 599.426 C 750.54 599.426 743.067 606.391 741.614 615.497 L 735.273 615.497 L 735.273 554.426 C 748.656 554.426 759.545 542.89 759.545 528.712 C 759.545 527.623 759.46 526.552 759.336 525.498 L 808.09 525.498 C 809.766 525.498 811.124 526.937 811.124 528.712 L 811.124 547.998 L 768.647 547.998 L 768.647 554.426 L 811.124 554.426 L 811.124 560.855 L 780.784 560.855 L 780.784 567.283 L 811.124 567.283 L 811.124 573.712 L 792.92 573.712 L 792.92 580.14 L 811.124 580.14 L 811.124 615.497 L 777.477 615.497 Z  M 841.465 631.568 C 834.772 631.568 829.329 625.802 829.329 618.711 C 829.329 611.62 834.772 605.854 841.465 605.854 C 848.158 605.854 853.601 611.62 853.601 618.711 C 853.601 625.802 848.158 631.568 841.465 631.568 Z  M 841.465 599.426 C 832.463 599.426 824.987 606.391 823.534 615.497 L 817.193 615.497 L 817.193 544.784 L 834.684 544.784 C 835.84 544.784 836.881 545.465 837.299 546.336 L 849.251 577.36 C 850.643 580.991 853.977 583.363 857.676 583.354 L 871.806 583.354 C 873.482 583.354 874.84 584.793 874.84 586.569 L 874.84 602.64 L 868.772 602.64 C 865.425 602.64 862.704 605.523 862.704 609.068 L 862.704 615.497 L 859.397 615.497 C 857.943 606.391 850.467 599.426 841.465 599.426 Z  M 868.772 615.497 L 868.772 609.068 L 874.84 609.068 L 874.84 615.497 L 868.772 615.497 Z " fill="url(#_lgradient_20)"/><linearGradient id="_lgradient_21" x1="50%" y1="-93.33999999999997%" x2="49.99999999999984%" y2="771.02%"><stop offset="0%" stop-opacity="1" style="stop-color:rgb(26,109,255)"/><stop offset="100%" stop-opacity="1" style="stop-color:rgb(200,34,255)"/></linearGradient><path d=" M 747.745 528.712 L 738.643 528.712 L 738.643 519.07 L 732.575 519.07 L 732.575 535.141 L 747.745 535.141 L 747.745 528.712 Z " fill="url(#_lgradient_21)"/><linearGradient id="_lgradient_22" x1="50%" y1="-6.25%" x2="49.999999999999986%" y2="96.875%"><stop offset="0%" stop-opacity="1" style="stop-color:rgb(109,199,255)"/><stop offset="100%" stop-opacity="1" style="stop-color:rgb(230,171,255)"/></linearGradient><path d=" M 753.813 621.925 C 753.813 618.377 756.532 615.497 759.882 615.497 C 763.231 615.497 765.95 618.377 765.95 621.925 C 765.95 625.473 763.231 628.354 759.882 628.354 C 756.532 628.354 753.813 625.473 753.813 621.925 Z " fill="url(#_lgradient_22)"/><linearGradient id="_lgradient_23" x1="50%" y1="-6.25%" x2="49.999999999999986%" y2="96.875%"><stop offset="0%" stop-opacity="1" style="stop-color:rgb(0,0,0)"/><stop offset="100%" stop-opacity="1" style="stop-color:rgb(230,171,255)"/></linearGradient><path d=" M 835.733 621.925 C 835.733 618.377 838.452 615.497 841.802 615.497 C 845.151 615.497 847.87 618.377 847.87 621.925 C 847.87 625.473 845.151 628.354 841.802 628.354 C 838.452 628.354 835.733 625.473 835.733 621.925 Z " fill="url(#_lgradient_23)"/><linearGradient id="_lgradient_24" x1="50.004105141416574%" y1="-3.7499999999999645%" x2="50.00410514141655%" y2="102.76000000000005%"><stop offset="0%" stop-opacity="1" style="stop-color:rgb(109,199,255)"/><stop offset="97.82608695652173%" stop-opacity="1" style="stop-color:rgb(0,0,0)"/></linearGradient><path d=" M 826.631 554.426 L 830.636 554.426 C 831.883 554.426 833.003 555.23 833.467 556.454 L 843.167 582.146 C 843.541 583.139 843.426 584.264 842.86 585.15 C 842.295 586.036 841.352 586.567 840.342 586.569 L 826.631 586.569 C 824.956 586.569 823.597 585.13 823.597 583.354 L 823.597 557.64 C 823.597 555.865 824.956 554.426 826.631 554.426 Z " fill="url(#_lgradient_24)"/></g><g id="Group"><linearGradient id="_lgradient_25" x1="50%" y1="-2.07499999999996%" x2="49.99999999999998%" y2="108.09999999999995%"><stop offset="0%" stop-opacity="1" style="stop-color:rgb(109,199,255)"/><stop offset="100%" stop-opacity="1" style="stop-color:rgb(230,171,255)"/></linearGradient><path d=" M 220.151 113.234 C 220.151 114.66 218.975 115.815 217.524 115.815 L 191.26 115.815 C 189.809 115.815 188.633 114.66 188.633 113.234 L 188.633 108.071 C 188.633 106.646 189.809 105.49 191.26 105.49 L 217.524 105.49 C 218.975 105.49 220.151 106.646 220.151 108.071 L 220.151 113.234 Z " fill="url(#_lgradient_25)"/><linearGradient id="_lgradient_26" x1="50.00019497250271%" y1="-0.3478829865050326%" x2="50.00019497250269%" y2="102.08541596673015%"><stop offset="0%" stop-opacity="1" style="stop-color:rgb(0,0,0)"/><stop offset="98.69565217391305%" stop-opacity="1" style="stop-color:rgb(0,0,0)"/></linearGradient><path d=" M 286.611 92.839 C 285.054 91.029 282.761 89.99 280.349 90.002 L 275.306 90.002 L 275.306 82.258 C 275.306 77.989 271.367 74.514 267.427 74.514 L 267.427 48.701 C 267.427 45.854 265.071 43.538 262.174 43.538 L 224.4 43.538 L 220.6 36.068 C 219.717 34.313 217.893 33.205 215.901 33.213 L 178.127 33.213 C 175.23 33.213 172.875 35.528 172.875 38.375 L 172.875 131.303 L 151.863 131.303 L 151.863 144.21 C 151.863 151.327 157.754 157.117 164.995 157.117 L 254.295 157.117 C 261.536 157.117 267.427 151.327 267.427 144.21 L 267.427 126.141 L 272.063 126.141 C 278.713 126.141 284.336 121.616 285.437 115.379 L 288.326 99.029 C 288.714 96.818 288.086 94.551 286.611 92.839 Z  M 270.053 82.258 L 270.053 90.002 L 254.295 90.002 L 254.295 82.258 C 254.295 80.833 255.474 79.677 256.921 79.677 L 267.427 79.677 C 268.878 79.677 270.053 80.832 270.053 82.258 Z  M 262.174 53.863 L 256.921 53.863 L 256.921 48.701 L 262.174 48.701 L 262.174 53.863 Z  M 215.901 38.375 L 218.528 43.538 L 203.386 43.538 L 200.76 38.375 L 215.901 38.375 Z  M 194.889 38.375 L 198.69 45.848 C 199.578 47.6 201.4 48.706 203.391 48.701 L 251.668 48.701 L 251.668 53.863 L 178.127 53.863 L 178.127 38.375 L 194.889 38.375 Z  M 164.995 151.954 C 160.651 151.954 157.116 148.482 157.116 144.21 L 157.116 136.466 L 241.162 136.466 L 241.162 144.21 C 241.162 147.114 242.142 149.373 243.794 151.954 L 164.995 151.954 Z  M 262.174 144.21 C 262.174 148.48 258.639 151.954 254.295 151.954 C 249.951 151.954 246.415 148.48 246.415 144.21 L 246.415 131.303 L 178.127 131.303 L 178.127 59.026 L 262.174 59.026 L 262.174 74.514 L 256.921 74.514 C 252.577 74.514 249.042 77.989 249.042 82.258 L 249.042 90.002 L 243.999 90.002 C 241.562 90.002 239.282 91.035 237.737 92.839 C 236.263 94.551 235.636 96.816 236.025 99.026 L 238.914 115.379 C 240.015 121.616 245.635 126.141 252.288 126.141 L 262.174 126.141 L 262.174 144.21 Z  M 283.149 98.144 L 280.26 114.496 C 279.598 118.252 276.152 120.978 272.063 120.978 L 252.288 120.978 C 248.199 120.978 244.753 118.252 244.091 114.496 L 241.202 98.141 C 241.078 97.431 241.283 96.704 241.761 96.159 C 242.302 95.529 243.116 95.165 243.999 95.165 L 280.349 95.165 C 281.232 95.165 282.046 95.529 282.589 96.161 C 283.067 96.707 283.272 97.434 283.149 98.144 L 283.149 98.144 Z " fill="url(#_lgradient_26)"/><linearGradient id="_lgradient_27" x1="50%" y1="-708.35%" x2="49.99999999999955%" y2="1750.05%"><stop offset="0%" stop-opacity="1" style="stop-color:rgb(26,109,255)"/><stop offset="100%" stop-opacity="1" style="stop-color:rgb(200,34,255)"/></linearGradient><rect x="188.633" y="69.351" width="52.529" height="5.163" transform="matrix(1,0,0,1,0,0)" fill="url(#_lgradient_27)"/><linearGradient id="_lgradient_28" x1="50%" y1="-908.3500000000001%" x2="49.99999999999955%" y2="1550.05%"><stop offset="0%" stop-opacity="1" style="stop-color:rgb(26,109,255)"/><stop offset="100%" stop-opacity="1" style="stop-color:rgb(200,34,255)"/></linearGradient><rect x="188.633" y="79.677" width="42.023" height="5.163" transform="matrix(1,0,0,1,0,0)" fill="url(#_lgradient_28)"/><linearGradient id="_lgradient_29" x1="50%" y1="-1108.3500000000001%" x2="49.99999999999955%" y2="1350.05%"><stop offset="2.608695652173913%" stop-opacity="1" style="stop-color:rgb(255,153,0)"/><stop offset="100%" stop-opacity="1" style="stop-color:rgb(200,34,255)"/></linearGradient><rect x="188.633" y="90.002" width="31.517" height="5.163" transform="matrix(1,0,0,1,0,0)" fill="url(#_lgradient_29)"/><linearGradient id="_lgradient_30" x1="50%" y1="-436.11666666666656%" x2="49.99999999999985%" y2="383.3499999999999%"><stop offset="0%" stop-opacity="1" style="stop-color:rgb(26,109,255)"/><stop offset="100%" stop-opacity="1" style="stop-color:rgb(200,34,255)"/></linearGradient><rect x="259.548" y="100.327" width="5.253" height="15.488" transform="matrix(1,0,0,1,0,0)" fill="url(#_lgradient_30)"/><linearGradient id="_lgradient_31" x1="50%" y1="-654.1750000000001%" x2="49.99999999999977%" y2="575.025%"><stop offset="0%" stop-opacity="1" style="stop-color:rgb(26,109,255)"/><stop offset="100%" stop-opacity="1" style="stop-color:rgb(200,34,255)"/></linearGradient><rect x="270.053" y="100.327" width="5.253" height="10.325" transform="matrix(1,0,0,1,0,0)" fill="url(#_lgradient_31)"/><linearGradient id="_lgradient_32" x1="50%" y1="-654.1750000000001%" x2="49.99999999999977%" y2="575.025%"><stop offset="0%" stop-opacity="1" style="stop-color:rgb(255,255,255)"/><stop offset="100%" stop-opacity="1" style="stop-color:rgb(200,34,255)"/></linearGradient><rect x="249.042" y="100.327" width="5.253" height="10.325" transform="matrix(1,0,0,1,0,0)" fill="url(#_lgradient_32)"/></g><g id="Group"><linearGradient id="_lgradient_33" x1="50%" y1="-1.6019228977909417%" x2="49.999999999999986%" y2="101.32306559280804%"><stop offset="0%" stop-opacity="1" style="stop-color:rgb(0,0,0)"/><stop offset="98.26086956521739%" stop-opacity="1" style="stop-color:rgb(0,0,0)"/></linearGradient><path d=" M 879.325 77.398 C 879.325 71.93 875.688 66.645 869.405 62.743 C 872.965 57.132 873.928 51.495 872.015 46.85 C 869.932 41.796 864.557 38.311 857.27 37.129 C 858.423 30.581 857.168 25.003 853.63 21.445 C 850.266 18.067 844.975 16.749 838.79 17.675 C 837.168 12.064 834.026 7.994 829.885 6.27 C 825.066 4.246 819.034 5.454 813.215 9.432 C 810.408 5.549 805.274 0 798.885 0 C 793.139 0 787.906 5.41 784.87 9.326 C 780.194 5.893 773.543 4.063 768.27 6.266 C 763.565 8.224 760.408 13.107 759.172 20.208 C 752.357 18.81 746.412 20.036 742.757 23.707 C 739.546 26.935 738.215 31.807 738.885 37.663 C 732.826 39.201 728.448 42.447 726.634 46.854 C 724.721 51.502 725.681 57.135 729.248 62.746 C 722.961 66.641 719.325 71.923 719.325 77.398 C 719.325 82.424 722.357 87.259 727.786 91.069 C 723.466 97.09 722.117 103.371 724.197 108.429 C 726.114 113.074 730.757 116.372 737.219 117.807 C 735.517 125.035 736.659 131.357 740.506 135.222 C 744.401 139.138 748.415 139.834 755.688 138.933 L 755.688 175.586 C 755.698 183.726 762.252 190.321 770.339 190.329 C 773.412 190.329 776.361 189.378 778.855 187.581 L 795.041 175.949 C 797.604 174.104 801.049 174.104 803.612 175.949 L 819.794 187.581 C 822.276 189.373 825.255 190.335 828.31 190.329 C 836.397 190.319 842.951 183.723 842.961 175.583 L 842.961 141.448 C 846.597 141.85 852.881 140.511 855.888 137.487 C 860.706 132.645 860.608 124.926 858.695 118.301 C 865.332 117.419 871.95 114.516 874.452 108.429 C 876.532 103.374 875.186 97.094 870.866 91.073 C 876.292 87.259 879.325 82.427 879.325 77.398 Z  M 828.31 183.009 C 826.761 183.009 825.281 182.53 824.023 181.625 L 807.845 169.993 C 802.752 166.326 795.905 166.326 790.812 169.993 L 774.63 181.625 C 772.379 183.235 769.425 183.448 766.97 182.176 C 764.514 180.905 762.968 178.362 762.961 175.583 L 762.961 150.232 C 762.961 152.274 766.321 153.929 768.71 154.924 C 773.492 156.908 779.459 155.744 785.241 151.813 C 789.081 157.666 794.154 161.048 799.325 161.048 C 804.499 161.048 809.568 157.666 813.412 151.817 C 819.19 155.744 825.157 156.912 829.939 154.928 C 832.19 153.991 835.688 152.344 835.688 150.17 L 835.688 175.586 C 835.684 179.685 832.383 183.007 828.31 183.009 L 828.31 183.009 Z  M 862.725 92.625 C 867.023 97.247 869.034 102.47 867.735 105.625 C 866.325 109.059 860.532 111.412 853.641 111.28 L 847.863 111.193 L 850.281 116.474 C 852.823 122.027 853.801 129.245 850.754 132.308 C 848.441 134.636 843.263 134.867 837.546 132.865 L 833.012 131.283 L 832.728 136.104 C 832.368 142.169 830.186 146.898 827.161 148.16 C 824.128 149.427 819.259 147.626 814.746 143.593 L 811.157 140.386 L 809.063 144.735 C 806.423 150.195 802.601 153.728 799.325 153.728 C 796.052 153.728 792.23 150.195 789.594 144.735 L 787.499 140.386 L 783.91 143.593 C 779.401 147.63 774.532 149.423 771.495 148.16 C 767.51 146.499 765.663 139.449 765.903 133.344 L 766.132 127.532 L 760.83 129.841 C 754.51 132.597 748.27 132.667 745.652 130.043 C 743.215 127.59 743.092 122.118 745.335 116.101 L 747.023 111.573 L 742.234 111.171 C 736.466 110.684 732.132 108.557 730.921 105.622 C 729.626 102.47 731.637 97.244 735.935 92.621 L 739.219 89.081 L 734.943 86.867 C 729.794 84.199 726.597 80.572 726.597 77.398 C 726.597 73.932 730.357 69.972 736.179 67.311 L 740.561 65.309 L 737.455 61.612 C 733.717 57.168 732.146 52.586 733.354 49.65 C 734.481 46.916 738.292 44.881 743.557 44.219 L 747.597 43.706 L 746.634 39.72 C 745.47 34.903 745.943 30.848 747.903 28.879 C 750.212 26.558 755.397 26.324 761.11 28.322 L 765.645 29.904 L 765.928 25.083 C 766.306 18.619 768.179 14.227 771.055 13.03 C 774.201 11.709 779.925 13.744 782.597 17.133 L 785.797 21.181 L 788.528 16.797 C 790.91 12.975 795.845 7.32 798.885 7.32 C 802.805 7.32 807.477 13.528 809.128 16.537 L 811.321 20.53 L 814.721 17.521 C 819.219 13.539 824.095 11.764 827.103 13.03 C 829.685 14.106 831.677 17.671 832.43 22.561 L 833.055 26.613 L 836.986 25.526 C 842.099 24.117 846.408 24.523 848.492 26.62 C 850.725 28.872 851.023 33.71 849.266 39.248 L 847.801 43.86 L 852.608 44.021 C 858.895 44.237 864.001 46.499 865.299 49.654 C 866.506 52.589 864.935 57.172 861.201 61.619 L 858.095 65.312 L 862.474 67.314 C 868.292 69.979 872.052 73.936 872.052 77.402 C 872.052 80.575 868.855 84.206 863.714 86.874 L 859.437 89.089 L 862.725 92.625 L 862.725 92.625 Z " fill="url(#_lgradient_33)"/><linearGradient id="_lgradient_34" x1="50%" y1="-31.941666666666645%" x2="49.99999999999997%" y2="109.43333333333331%"><stop offset="0%" stop-opacity="1" style="stop-color:rgb(0,0,0)"/><stop offset="100%" stop-opacity="1" style="stop-color:rgb(230,171,255)"/></linearGradient><path d=" M 777.506 113.466 C 777.506 115.487 775.878 117.126 773.87 117.126 L 766.597 117.126 C 764.589 117.126 762.961 115.487 762.961 113.466 L 762.961 76.864 C 762.961 74.842 764.589 73.204 766.597 73.204 L 773.87 73.204 C 775.878 73.204 777.506 74.842 777.506 76.864 L 777.506 113.466 Z " fill="url(#_lgradient_34)"/><linearGradient id="_lgradient_35" x1="50%" y1="20.835505259506714%" x2="49.999999999999986%" y2="105.65996387584403%"><stop offset="0%" stop-opacity="1" style="stop-color:rgb(0,0,0)"/><stop offset="97.82608695652173%" stop-opacity="1" style="stop-color:rgb(255,255,255)"/></linearGradient><path d=" M 813.87 73.204 C 811.862 73.204 810.234 71.565 810.234 69.543 L 810.234 54.903 C 810.234 48.872 805.403 43.97 799.412 43.922 C 798.435 43.907 797.492 44.284 796.793 44.972 C 796.093 45.659 795.696 46.599 795.688 47.582 L 795.688 64.265 C 795.688 67.417 793.685 70.213 790.714 71.212 L 787.263 72.369 C 785.78 72.868 784.78 74.265 784.779 75.839 L 784.779 113.466 C 784.779 115.487 786.407 117.126 788.415 117.126 L 813.87 117.126 C 825.92 117.126 835.688 107.293 835.688 95.165 L 835.688 80.524 C 835.688 76.481 832.432 73.204 828.415 73.204 L 813.87 73.204 Z " fill="url(#_lgradient_35)"/></g><g transform="matrix(1,0,0,1,55.65,157.117)"><text transform="matrix(1,0,0,1,10.74,30.33)" style="font-family:&quot;Nunito Sans&quot;;font-weight:800;font-size:30px;font-style:normal;fill:#ffffff;stroke:none;">Coordiates the orders </text><text transform="matrix(1,0,0,1,52.26,71.25)" style="font-family:&quot;Nunito Sans&quot;;font-weight:800;font-size:30px;font-style:normal;fill:#ffffff;stroke:none;">from our clients</text></g><g transform="matrix(1,0,0,1,608.997,191.274)"><text transform="matrix(1,0,0,1,35.274,30.33)" style="font-family:&quot;Nunito Sans&quot;;font-weight:700;font-size:30px;font-style:normal;fill:#ffffff;stroke:none;">sources for the right</text><text transform="matrix(1,0,0,1,5.094,71.25)" style="font-family:&quot;Nunito Sans&quot;;font-weight:700;font-size:30px;font-style:normal;fill:#ffffff;stroke:none;">quality and quantity that </text><text transform="matrix(1,0,0,1,43.389,112.17)" style="font-family:&quot;Nunito Sans&quot;;font-weight:700;font-size:30px;font-style:normal;fill:#ffffff;stroke:none;">meets the demand;</text></g><g transform="matrix(1,0,0,1,690.997,641.211)"><text transform="matrix(1,0,0,1,38.144,30.33)" style="font-family:&quot;Nunito Sans&quot;;font-weight:800;font-size:30px;font-style:normal;fill:#ffffff;stroke:none;">Monitor </text><text transform="matrix(1,0,0,1,26.639,71.25)" style="font-family:&quot;Nunito Sans&quot;;font-weight:800;font-size:30px;font-style:normal;fill:#ffffff;stroke:none;">deliveries</text></g><g transform="matrix(1,0,0,1,0,620.193)"><text transform="matrix(1,0,0,1,6.231,30.33)" style="font-family:&quot;Nunito Sans&quot;;font-weight:800;font-size:30px;font-style:normal;fill:#ffffff;stroke:none;">Does proper documentation as </text><text transform="matrix(1,0,0,1,31.791,71.25)" style="font-family:&quot;Nunito Sans&quot;;font-weight:800;font-size:30px;font-style:normal;fill:#ffffff;stroke:none;">well as shipment follow-up</text></g><path d=" M 799.288 319.945 C 797.772 319.991 796.554 321.753 796.576 323.887 L 796.576 491.738 L 773.674 460.798 C 773.146 460.057 772.429 459.647 771.684 459.661 C 770.563 459.705 769.57 460.692 769.165 462.164 C 768.763 463.638 769.04 465.308 769.865 466.379 L 799.332 506.213 L 828.8 466.382 C 829.522 465.431 829.823 464.005 829.588 462.653 C 829.351 461.303 828.619 460.235 827.67 459.853 C 826.72 459.471 825.698 459.833 824.99 460.802 L 802.088 491.738 L 802.088 323.887 C 802.098 322.838 801.806 321.827 801.279 321.084 C 800.752 320.342 800.034 319.931 799.288 319.945 Z " fill="rgb(0,0,0)"/><path d=" M 355.544 114.622 C 355.632 116.137 358.759 117.343 362.54 117.305 L 659.907 116.101 L 605.186 139.225 C 603.875 139.757 603.152 140.478 603.18 141.223 C 603.261 142.344 605.014 143.33 607.624 143.724 C 610.237 144.116 613.195 143.826 615.087 142.994 L 685.539 113.241 L 614.856 84.059 C 613.167 83.344 610.64 83.053 608.246 83.298 C 605.855 83.544 603.966 84.284 603.293 85.236 C 602.619 86.188 603.265 87.208 604.985 87.909 L 659.884 110.588 L 362.517 111.793 C 360.657 111.791 358.868 112.09 357.555 112.622 C 356.242 113.155 355.516 113.876 355.544 114.622 Z " fill="rgb(0,0,0)"/><path d=" M 691.047 563.124 C 690.967 561.608 687.864 560.386 684.103 560.405 L 388.364 560.121 L 442.9 537.271 C 444.206 536.745 444.929 536.028 444.905 535.283 C 444.829 534.162 443.092 533.167 440.497 532.76 C 437.901 532.355 434.958 532.63 433.071 533.453 L 362.858 562.853 L 433.008 592.388 C 434.683 593.111 437.195 593.415 439.578 593.182 C 441.956 592.948 443.839 592.218 444.513 591.269 C 445.188 590.32 444.551 589.297 442.844 588.588 L 388.359 565.634 L 684.098 565.917 C 685.948 565.929 687.729 565.639 689.038 565.113 C 690.346 564.587 691.071 563.869 691.047 563.124 Z " fill="rgb(0,0,0)"/></g></svg>