<?xml version="1.0" standalone="no"?>
<!-- Generator: Gravit.io -->
<svg xmlns="http://www.w3.org/2000/svg" xmlns:xlink="http://www.w3.org/1999/xlink" style="isolation:isolate" viewBox="0 0 688.026 241.862" >

  <g clip-path="url(#_clipPath_viLja8PcewwSLO6qXr4hEdLj8drgUL97)">
  <path
    d=" M 70.426 1.262 C 70.126 2.062 71.426 4.662 73.226 7.062 C 78.126 13.462 83.926 25.862 86.226 34.662 C 88.326 43.262 88.826 61.762 87.026 67.862 C 86.526 69.762 86.026 72.862 86.026 74.662 C 86.026 76.462 85.526 78.962 84.926 80.062 C 83.826 82.162 85.226 85.062 86.426 83.062 C 88.126 80.262 92.026 57.162 92.026 49.862 C 92.026 41.962 89.926 29.062 88.026 25.662 C 87.426 24.662 87.026 23.362 87.026 22.762 C 87.026 20.062 80.426 8.162 76.726 4.162 C 72.526 -0.438 71.326 -0.938 70.426 1.262 Z  M 22.326 4.062 C 19.726 7.462 20.026 8.862 23.726 10.362 C 28.526 12.362 30.026 12.162 27.026 9.862 C 24.026 7.662 25.026 5.962 28.326 7.762 C 31.626 9.462 40.226 16.962 39.626 17.562 C 39.326 17.862 37.626 16.862 35.726 15.462 C 32.226 12.762 31.026 12.262 31.026 13.662 C 31.026 14.662 38.926 19.462 40.026 19.162 C 40.526 18.962 41.126 19.762 41.526 20.762 C 41.826 21.762 44.526 24.862 47.426 27.662 C 50.326 30.462 53.026 33.462 53.426 34.362 C 53.726 35.262 54.526 35.662 55.126 35.362 C 56.526 34.362 60.026 37.662 61.926 41.862 C 62.826 43.762 64.326 46.562 65.326 47.962 C 67.226 50.762 72.226 63.362 73.426 68.062 C 73.926 70.162 73.726 70.862 72.526 70.862 C 71.426 70.862 71.226 71.662 71.726 74.062 C 72.026 75.862 72.626 77.762 73.026 78.362 C 73.426 78.862 74.326 81.962 75.026 85.162 C 77.526 96.062 79.726 93.162 78.126 81.162 C 76.226 68.262 74.226 61.362 68.526 49.262 C 61.426 34.062 50.126 20.562 35.126 9.262 C 26.426 2.762 24.026 1.862 22.326 4.062 Z  M 67.926 7.562 C 67.926 8.062 67.426 12.162 67.026 16.862 C 66.526 21.562 65.826 26.962 65.426 29.062 C 64.926 32.262 65.326 33.362 69.126 38.462 C 75.926 47.662 79.326 55.362 78.626 59.662 C 78.026 63.562 80.826 75.862 82.326 75.862 C 82.826 75.862 82.926 73.962 82.626 71.562 C 82.326 69.262 81.726 64.162 81.226 60.362 C 80.326 52.862 77.326 46.062 71.326 37.762 L 67.726 32.662 L 68.926 24.062 C 70.526 12.462 70.826 11.862 72.626 14.262 C 75.226 17.862 75.226 15.062 72.626 10.962 C 70.226 7.262 68.126 5.762 67.926 7.562 Z  M 20.326 14.462 C 20.626 15.562 21.126 21.062 21.526 26.862 C 22.526 44.062 25.926 51.862 32.426 51.862 C 34.126 51.862 33.926 51.362 30.826 48.862 C 28.826 47.162 26.726 44.362 26.126 42.562 C 24.826 38.162 22.826 18.062 23.626 16.762 C 23.926 16.162 25.126 15.962 26.326 16.262 C 28.026 16.662 28.126 16.562 26.926 15.362 C 26.126 14.662 24.226 13.662 22.626 13.262 C 20.226 12.662 19.826 12.862 20.326 14.462 Z  M 33.026 20.762 C 35.526 22.962 37.926 24.862 38.426 24.862 C 40.026 24.862 34.626 19.762 31.526 18.262 C 29.026 16.962 29.226 17.362 33.026 20.762 Z  M 35.526 52.862 C 35.826 53.362 36.826 53.862 37.626 53.862 C 38.426 53.862 38.826 53.362 38.526 52.862 C 38.226 52.262 37.226 51.862 36.426 51.862 C 35.626 51.862 35.226 52.262 35.526 52.862 Z  M 30.526 56.162 C 30.326 56.762 29.926 58.962 29.626 60.962 C 28.926 64.962 29.926 66.262 34.326 67.362 C 37.626 68.262 37.926 66.762 34.826 65.362 C 31.626 63.962 31.726 59.762 35.026 58.162 C 37.626 56.862 37.726 56.962 32.526 55.362 C 31.626 55.162 30.826 55.462 30.526 56.162 Z  M 108.526 60.762 C 104.026 61.862 101.626 63.362 98.126 67.462 C 94.026 72.062 95.026 73.262 99.326 69.062 C 101.126 67.262 105.026 65.062 107.926 63.962 C 114.826 61.562 115.326 59.162 108.526 60.762 Z  M 39.026 67.862 C 39.026 68.362 39.526 68.862 40.026 68.862 C 40.626 68.862 41.026 68.362 41.026 67.862 C 41.026 67.262 40.626 66.862 40.026 66.862 C 39.526 66.862 39.026 67.262 39.026 67.862 Z  M 43.026 68.862 C 43.026 69.362 43.426 69.862 43.926 69.862 C 45.326 69.862 55.626 76.962 64.026 83.762 C 71.726 89.962 73.726 91.062 72.626 88.262 C 72.326 87.362 72.026 85.962 72.026 85.162 C 72.026 84.162 71.426 83.762 70.026 84.162 C 68.726 84.462 65.626 82.762 59.926 78.162 C 55.426 74.662 49.926 70.862 47.726 69.862 C 43.026 67.562 43.026 67.562 43.026 68.862 Z  M 16.826 71.562 C 10.526 73.662 4.226 79.162 1.926 84.662 C -0.574 90.462 -0.674 102.562 1.826 109.162 C 4.626 116.362 5.126 116.562 10.926 112.362 C 13.726 110.362 16.026 108.462 16.026 108.262 C 16.026 107.762 12.826 109.062 10.326 110.662 C 7.026 112.662 5.526 111.662 3.626 106.262 C 1.326 99.462 1.626 92.362 4.426 86.362 C 8.726 77.062 16.026 72.962 27.826 72.862 C 36.226 72.862 37.426 71.462 29.826 70.462 C 22.826 69.662 22.326 69.762 16.826 71.562 Z  M 66.026 70.862 C 66.026 71.362 66.526 71.862 67.026 71.862 C 67.626 71.862 68.026 71.362 68.026 70.862 C 68.026 70.262 67.626 69.862 67.026 69.862 C 66.526 69.862 66.026 70.262 66.026 70.862 Z  M 98.726 73.062 C 94.926 75.162 90.326 80.462 91.426 81.562 C 91.826 81.962 93.726 80.562 95.826 78.562 C 97.826 76.662 100.826 74.462 102.426 73.862 C 105.826 72.562 110.726 73.362 113.326 75.662 C 114.226 76.462 115.326 76.862 115.826 76.462 C 116.226 76.062 115.226 74.562 113.726 73.262 C 110.226 70.262 104.126 70.162 98.726 73.062 Z  M 38.026 72.562 C 38.026 72.962 40.026 74.162 42.426 75.162 C 48.026 77.462 68.426 93.762 68.826 96.262 C 69.126 97.462 68.326 98.962 66.926 99.962 C 64.926 101.462 64.826 101.862 66.326 101.862 C 68.326 101.862 72.026 98.462 72.026 96.462 C 72.026 95.062 68.126 91.362 58.426 83.762 C 48.726 76.062 38.026 70.262 38.026 72.562 Z  M 68.026 75.862 C 68.026 78.562 69.226 81.862 70.126 81.862 C 70.626 81.862 70.726 80.662 70.426 79.062 C 69.626 75.962 68.026 73.662 68.026 75.862 Z  M 86.426 87.362 C 86.026 88.262 86.426 89.662 87.226 90.562 C 88.526 91.762 89.226 91.862 90.926 90.862 C 93.926 89.362 93.226 86.462 89.726 86.062 C 87.926 85.862 86.826 86.262 86.426 87.362 Z  M 193.926 91.262 C 192.226 92.162 185.626 92.862 175.426 93.262 C 139.826 94.762 110.826 99.962 95.726 107.462 C 89.026 110.762 80.226 117.462 77.526 121.262 C 74.026 126.062 73.526 132.962 76.326 137.162 C 82.126 146.062 102.826 146.662 120.526 138.262 C 128.626 134.462 133.026 131.362 133.026 129.262 C 133.026 127.162 131.326 127.562 127.626 130.362 C 120.826 135.562 102.926 139.562 94.726 137.662 C 89.126 136.462 87.226 135.262 85.526 131.862 C 84.126 129.162 84.126 128.562 85.526 125.962 C 90.726 115.762 112.726 106.362 143.026 101.362 C 159.426 98.662 187.026 96.962 187.026 98.562 C 187.026 101.262 169.826 138.062 162.526 150.862 C 132.526 204.062 129.926 208.062 120.126 216.962 C 112.126 224.162 104.526 228.362 94.426 230.862 C 68.826 237.462 52.826 228.262 54.226 207.962 C 55.026 197.262 60.026 187.662 69.826 177.862 C 78.626 169.062 85.226 165.862 94.626 165.862 C 101.626 165.862 106.026 167.762 109.426 172.062 C 111.626 174.962 112.026 176.562 112.026 182.062 C 112.026 187.662 111.526 189.262 108.526 194.362 C 103.826 202.162 105.426 203.562 111.226 196.662 C 118.826 187.762 121.026 183.462 121.026 178.062 C 121.026 165.262 106.526 158.362 88.026 162.262 C 76.926 164.562 69.126 168.962 61.226 177.262 C 51.326 187.762 47.026 197.362 47.026 209.162 C 47.026 218.262 48.526 223.062 53.226 228.262 C 58.926 234.862 64.526 237.062 76.626 237.662 C 89.926 238.262 100.826 236.062 111.526 230.662 C 126.226 223.162 133.326 215.962 152.126 189.162 C 157.626 181.262 162.626 174.662 163.126 174.262 C 163.626 173.962 167.526 174.562 171.826 175.462 C 182.426 177.862 204.626 177.862 215.526 175.462 C 242.926 169.262 262.626 157.162 270.426 141.562 C 281.926 118.562 264.026 102.562 218.826 95.362 C 213.426 94.562 207.726 93.862 206.026 93.862 C 204.126 93.862 202.726 93.162 202.026 91.862 C 200.826 89.562 197.626 89.262 193.926 91.262 Z  M 225.026 100.962 C 252.726 105.862 268.026 117.762 264.126 131.062 C 257.626 152.662 219.526 172.462 185.026 172.162 C 172.826 172.062 167.726 171.062 167.226 168.762 C 167.126 167.962 170.226 162.162 174.126 155.862 C 184.626 138.962 193.626 121.062 197.026 109.762 C 198.726 104.362 200.726 99.562 201.626 99.062 C 203.226 98.162 214.426 99.062 225.026 100.962 Z  M 75.726 98.862 C 71.426 103.262 68.026 107.362 68.026 108.062 C 68.026 108.662 67.426 109.962 66.726 110.762 C 64.826 113.062 60.726 125.562 61.526 126.762 C 62.926 129.162 64.926 127.562 66.626 122.562 C 68.826 115.962 71.726 111.262 76.626 106.862 C 83.626 100.362 88.026 95.462 87.726 94.462 C 87.526 93.962 86.526 92.962 85.326 92.162 C 83.526 90.962 82.726 91.462 75.726 98.862 Z  M 84.026 95.762 C 84.026 96.962 75.026 104.862 73.626 104.862 C 73.126 104.862 74.826 102.562 77.526 99.862 C 82.326 94.962 84.026 93.962 84.026 95.762 Z  M 94.026 94.262 C 94.026 94.562 95.426 96.262 97.026 98.062 C 100.226 101.562 101.126 100.462 98.426 96.362 C 97.026 94.262 94.026 92.862 94.026 94.262 Z  M 25.026 103.862 C 25.026 104.362 25.526 104.862 26.026 104.862 C 26.626 104.862 27.026 104.362 27.026 103.862 C 27.026 103.262 26.626 102.862 26.026 102.862 C 25.526 102.862 25.026 103.262 25.026 103.862 Z  M 40.126 107.162 C 39.626 108.462 37.026 110.962 34.326 112.662 C 31.626 114.362 28.226 117.162 26.626 118.762 C 25.026 120.462 22.526 122.062 20.926 122.362 C 17.826 123.062 12.026 120.562 12.026 118.462 C 12.026 117.062 15.126 113.862 16.626 113.862 C 17.126 113.862 18.626 112.962 20.026 111.862 L 22.526 109.862 L 19.526 111.162 C 15.126 112.962 8.026 117.762 8.026 118.862 C 8.026 120.362 16.726 125.862 19.026 125.862 C 20.326 125.862 24.326 122.962 28.826 118.862 C 33.226 114.862 39.226 110.462 42.826 108.762 C 46.226 107.162 49.026 105.562 49.026 105.262 C 49.026 105.062 47.226 104.862 45.026 104.862 C 41.726 104.862 40.826 105.262 40.126 107.162 Z  M 62.026 107.762 C 60.826 110.062 52.626 121.262 48.026 127.062 C 43.226 132.962 37.026 132.962 31.526 126.862 C 29.926 125.162 29.826 124.462 30.826 122.762 C 31.526 121.762 31.626 120.862 31.226 120.862 C 30.026 120.862 27.026 124.262 27.026 125.462 C 27.026 128.062 36.926 134.862 40.526 134.862 C 43.826 134.862 48.126 131.662 52.026 126.362 C 54.226 123.362 56.026 120.662 56.026 120.262 C 56.026 119.862 57.526 117.762 59.326 115.462 C 63.726 110.062 65.326 107.162 64.126 106.362 C 63.526 106.062 62.626 106.662 62.026 107.762 Z  M 79.026 108.962 C 79.026 109.462 79.526 109.662 80.026 109.362 C 80.626 109.062 81.026 108.562 81.026 108.262 C 81.026 108.062 80.626 107.862 80.026 107.862 C 79.526 107.862 79.026 108.362 79.026 108.962 Z  M 36.726 116.362 C 33.126 118.862 32.226 119.862 33.826 119.862 C 34.626 119.762 41.726 113.862 40.926 113.862 C 40.726 113.862 38.826 114.962 36.726 116.362 Z  M 490.626 126.062 C 482.126 134.762 472.426 148.762 460.526 169.862 C 450.226 187.962 445.426 193.962 434.726 202.462 C 417.226 216.262 407.326 218.262 407.726 208.062 C 407.826 205.762 408.626 202.462 409.626 200.662 C 412.026 195.862 422.726 180.662 430.426 171.062 C 434.026 166.562 437.026 162.362 437.026 161.862 C 437.026 161.362 435.926 160.162 434.526 159.262 C 428.726 155.462 421.626 160.462 412.726 174.362 C 401.626 191.862 397.526 206.162 401.526 213.862 C 403.426 217.562 405.826 218.862 410.726 218.862 C 419.126 218.862 428.026 214.162 439.726 203.462 C 443.026 200.362 446.126 197.862 446.426 197.862 C 446.726 197.862 447.026 200.262 447.026 203.262 C 447.026 209.762 449.926 214.062 455.726 215.962 C 460.626 217.562 468.726 216.562 473.526 213.762 C 480.426 209.762 487.826 203.962 490.726 200.362 C 492.226 198.462 494.026 196.862 494.526 196.862 C 495.126 196.862 495.526 199.662 495.526 203.262 C 495.526 208.662 495.926 210.062 497.926 212.262 C 505.726 220.562 520.726 217.262 535.326 203.862 C 538.326 201.062 541.126 198.862 541.426 198.862 C 541.726 198.862 542.026 200.662 542.026 202.862 C 542.026 208.062 544.126 213.162 547.126 215.262 C 552.226 218.762 562.226 216.562 570.126 210.162 C 579.126 202.962 591.426 186.762 594.126 178.362 C 595.626 173.962 596.326 173.062 600.626 171.062 C 607.926 167.562 610.326 165.762 609.326 164.762 C 608.926 164.362 606.526 164.662 603.926 165.562 C 597.226 167.962 596.026 167.162 596.026 159.862 C 596.026 154.562 595.726 153.462 593.426 151.362 C 587.626 145.962 578.326 149.662 566.326 162.162 C 562.026 166.662 556.226 173.462 553.526 177.362 C 542.826 192.662 530.126 204.762 519.326 209.962 C 514.226 212.462 506.826 213.062 504.826 211.062 C 502.726 208.962 503.726 201.062 506.926 194.262 C 511.826 183.862 524.026 165.862 547.826 134.062 C 556.026 123.162 556.226 122.762 554.526 120.862 C 549.826 115.662 542.426 120.062 530.526 135.362 C 524.126 143.462 509.126 167.762 503.226 179.362 C 497.926 190.062 478.926 207.262 468.626 210.862 C 461.626 213.362 459.526 213.362 456.926 210.762 C 451.026 204.862 460.626 186.862 492.526 143.862 C 507.726 123.462 508.126 122.662 506.426 120.762 C 505.426 119.562 503.426 118.862 501.226 118.862 C 498.326 118.862 496.826 119.862 490.626 126.062 Z  M 585.826 169.762 C 587.626 171.962 589.026 174.662 589.026 175.862 C 589.026 182.762 571.226 204.562 561.326 209.762 C 557.726 211.662 553.226 211.162 551.926 208.762 C 548.326 201.962 557.026 185.662 571.826 171.562 C 579.226 164.562 581.426 164.262 585.826 169.762 Z  M 442.526 136.562 C 437.726 137.662 436.726 142.662 440.526 146.362 C 445.126 151.062 454.026 148.262 454.026 142.062 C 454.026 138.562 447.426 135.362 442.526 136.562 Z  M 290.026 152.162 C 274.726 158.462 253.626 178.762 247.726 193.062 C 245.126 199.262 244.726 205.962 246.726 209.862 C 248.726 213.662 255.626 217.862 260.126 217.862 C 263.526 217.862 272.826 211.662 281.026 204.062 C 284.626 200.662 287.826 197.962 288.126 197.862 C 288.526 197.862 289.026 200.462 289.226 203.562 C 289.626 208.662 290.126 209.562 293.526 212.562 C 299.526 217.762 305.626 216.762 315.426 208.962 C 317.626 207.262 319.526 205.962 319.726 206.262 C 319.926 206.462 318.026 210.562 315.626 215.462 C 310.526 225.562 307.726 235.062 308.626 239.162 C 309.126 241.462 309.726 241.862 312.426 241.862 C 315.626 241.862 315.726 241.662 316.926 236.062 C 318.326 229.862 326.026 214.062 328.926 211.462 C 330.726 209.862 331.026 209.962 335.526 213.062 C 340.126 216.262 340.426 216.362 350.326 216.262 C 359.926 216.262 361.026 216.062 368.026 212.662 C 387.426 203.462 400.526 189.162 402.426 175.262 C 403.726 165.862 399.526 160.362 389.126 157.962 C 385.326 157.062 383.226 157.162 377.526 158.662 C 373.726 159.762 369.826 160.862 369.026 161.262 C 368.026 161.662 366.926 160.862 365.826 158.862 C 362.426 152.862 357.626 155.862 343.826 172.062 C 324.126 195.362 320.726 199.062 314.626 204.062 C 307.226 210.262 302.826 212.362 300.026 210.862 C 293.826 207.562 297.926 196.762 314.526 172.862 C 321.426 162.962 321.826 161.562 318.426 158.962 C 316.926 157.762 314.926 156.862 313.926 156.862 C 312.926 156.862 311.426 155.562 310.626 153.962 C 309.726 152.362 308.326 150.862 307.526 150.462 C 304.026 149.162 295.326 149.962 290.026 152.162 Z  M 308.826 160.062 C 308.026 164.162 287.726 191.162 278.526 200.462 C 272.126 206.962 268.226 210.062 264.926 211.262 C 255.726 214.762 252.026 211.462 254.526 201.962 C 256.426 194.862 261.726 187.462 272.426 177.062 C 286.726 163.262 295.626 157.962 304.426 157.862 C 308.926 157.862 309.226 158.062 308.826 160.062 Z  M 389.826 164.862 C 393.126 167.962 392.826 176.162 389.326 183.662 C 384.926 193.062 371.426 204.562 359.626 209.162 C 350.626 212.562 336.326 210.362 334.326 205.262 C 333.226 202.362 337.626 196.362 351.326 182.262 C 367.326 165.762 371.526 163.262 383.126 162.962 C 386.426 162.862 388.226 163.462 389.826 164.862 Z  M 665.626 153.862 C 658.026 157.662 643.526 169.662 626.726 185.862 C 621.926 190.562 617.426 194.562 616.826 194.762 C 614.126 195.662 619.626 184.962 629.826 169.662 C 636.226 160.062 636.926 157.462 633.926 155.562 C 630.526 153.362 627.526 155.862 615.526 170.562 C 608.926 178.662 600.626 188.362 597.126 192.162 C 592.126 197.362 590.926 199.162 591.826 200.062 C 592.826 201.062 594.626 199.762 600.026 194.362 C 603.826 190.562 607.226 187.662 607.526 187.962 C 607.726 188.262 606.426 192.262 604.526 196.762 C 600.826 205.462 600.326 209.162 602.126 213.262 C 604.626 218.662 607.926 217.762 614.026 210.162 C 621.226 201.262 634.126 185.862 639.026 180.462 C 644.726 174.262 656.426 164.462 656.826 165.662 C 656.926 166.162 654.426 171.062 651.226 176.462 C 643.126 190.262 640.826 196.162 640.226 204.362 C 639.826 210.862 640.026 211.562 642.526 214.262 C 644.826 216.762 645.626 217.062 649.926 216.662 C 653.126 216.362 656.326 215.062 659.626 212.862 C 668.626 206.762 688.026 186.862 688.026 183.662 C 688.026 181.462 685.126 183.762 674.326 194.762 C 662.626 206.562 655.926 211.262 651.726 210.662 C 649.926 210.462 649.426 209.562 649.226 206.362 C 649.026 204.162 649.326 200.762 649.926 198.762 C 651.326 194.062 658.826 182.662 667.926 171.362 C 677.726 159.262 678.626 157.462 676.526 154.262 C 674.626 151.262 671.026 151.162 665.626 153.862 Z "
    fill-rule="evenodd"
    fill="#e4405f"
    stroke-width=".75"
    stroke="rgb(233,0,82)"
    stroke-linejoin="miter"
    stroke-linecap="square"
    stroke-miterlimit="3"/>
  </g>
</svg>
