
<svg xmlns="http://www.w3.org/2000/svg" xmlns:xlink="http://www.w3.org/1999/xlink" style="isolation:isolate" viewBox="0 0 224 174" width="224" height="174">
  <defs>
    <style>
    .sto{
      stroke-dasharray:2000;
      stroke-dashoffset:0;
      -webkit-animation: dash 10s linear forwards;
      animation: dash 10s linear forwards;
    }


    @-webkit-keyframes dash{
      0%{
        stroke-dashoffset:2000;

      }
      100%{
        stroke-dashoffset:0;
      }
    }
    </style>
  </defs>
  <g clip-path="url(#_clipPath_ShFJqDz2uMfrDw2e8HWrbqx5RszSnW3L)"><rect width="224" height="174" style="fill:rgb(0,0,0)" fill-opacity="0"/><path
    class="sto"
    d=" M 107.167 92.555 C 125.562 103.83 150.846 117.413 117.909 133.801 C 176.804 124.018 116.134 91.099 96.602 81.405 C 87.103 76.699 76.219 71.284 61.642 66.17 C 50.367 62.211 38.133 57.221 35.292 74.036 C 55.463 64.768 85.594 79.309 107.167 92.555 Z  M 63.062 79.647 C 69.596 118.194 74.319 156.422 132.664 141.152 C 86.198 148.556 74.87 114.75 63.062 79.647 Z  M 171.691 35.009 C 174.638 67.449 125.171 63.951 111.038 82.452 C 132.096 69.792 229.006 64.697 171.691 35.009 Z  M 174.319 67.52 C 166.417 90.087 154.308 121.177 136.535 138.542 C 158.8 132.523 167.412 90.655 174.319 67.52 Z  M 72.046 62.069 C 93.335 76.859 163.825 57.772 169.471 27.907 C 170.288 23.646 170.625 18.106 168.548 13.738 C 164.322 2.712 152.834 -0.964 135.487 0.208 C 197.951 36.749 103.101 68.07 72.046 62.069 Z  M 92.412 58.038 C 78.261 45.574 55.463 23.184 84.316 10.222 C 34.653 9.761 63.63 48.255 92.412 58.038 Z  M 66.24 63.844 C 75.065 45.201 51.503 28.599 34.422 41.508 C 51.734 41.969 55.463 51.078 66.24 63.844 Z  M 92.59 48.024 C 101.787 47.243 107.859 50.208 114.553 52.41 C 105.498 46.124 95.839 41.099 83.96 40.442 C 86.855 42.981 89.713 45.503 92.59 48.024 Z  M 144.258 34.832 C 136.624 41.934 124.266 43.319 111.553 46.071 C 125.207 47.154 138.754 50.226 144.258 34.832 Z  M 102.444 41.508 C 97.81 36.714 93.815 31.902 94.347 27.108 C 93.619 22.776 95.146 19.065 97.686 15.673 C 92.465 16.934 88.435 19.207 86.979 23.77 C 85.221 30.659 94.134 36.039 102.444 41.508 Z  M 102.604 32.026 C 110.594 39.91 122.099 42.2 131.119 37.442 C 146.389 29.381 135.523 21.213 124.816 14.466 C 118.353 10.382 112.352 11.181 107.895 25.688 C 116.968 14.91 128.74 19.42 129.805 25.315 C 130.942 31.582 120.537 39.448 102.604 32.026 Z  M 54.38 123.077 C 52.32 120.023 49.213 118.372 46.194 116.632 C 48.982 118.638 51.397 121.177 53.226 124.693 C 56.546 131.12 62.05 136.323 67.785 140.637 C 80.392 150.065 89.021 146.656 96.975 144.526 C 87.796 142.235 75.384 141.063 67.394 136.323 C 62.086 133.198 57.86 128.208 54.38 123.077 Z  M 126.183 146.177 C 150.455 158.482 165.902 146.958 185.132 129.718 C 167.66 143.407 147.579 150.616 126.183 146.177 Z  M 103.918 148.219 C 106.031 153.439 106.617 158.925 106.031 164.625 C 105.445 170.413 105.729 172.118 100.367 174 C 107.114 173.805 108.002 172.065 112.281 166.614 C 116.418 161.358 120.022 155.428 122.756 148.467 C 116.418 149.426 110.097 149.622 103.918 148.219 Z  M 134.67 151.823 C 132.256 151.379 129.752 150.669 127.107 149.639 C 131.865 158.961 142.856 158.553 152.604 156.848 C 145.608 157.434 139.571 155.925 134.67 151.823 Z  M 65.424 148.095 C 75.296 152.427 82.274 154.717 88.346 148.219 C 78.652 149.977 76.255 151.823 65.424 148.095 Z "
    fill-rule="evenodd"
    fill="none"
    vector-effect="non-scaling-stroke"
    stroke-width="1.5"
    stroke="rgb(255,255,255)"
    stroke-linejoin="miter"
    stroke-linecap="butt"
    stroke-miterlimit="4"/></g>
</svg>
