
<svg xmlns="http://www.w3.org/2000/svg" xmlns:xlink="http://www.w3.org/1999/xlink" style="isolation:isolate" viewBox="0 0 224 174" width="224" height="174">
  <defs>
  <style>
    .sto{
      stroke-dasharray:2000;
      stroke-dashoffset:0;
      -webkit-animation: dash 9s linear forwards;
      animation: dash 9s linear forwards;
    }


    @-webkit-keyframes dash{
      0%{
        stroke-dashoffset:2000;

      }
      100%{
        stroke-dashoffset:0;
      }
    }
  </style>
  </defs>
  <g clip-path="url(#_clipPath_bQgMzvxAndd1vlZ6dPTMjLeyauy1xiO6)"><rect width="224" height="174"  fill-opacity="0"/>
    <g><path
      class="sto"
      d=" M 204.65 53.384 C 192.104 41.382 182.633 51.216 173.139 59.275 C 172.712 68.566 169.413 79.385 164.026 88.232 C 161.849 91.609 159.672 94.985 156.911 97.351 C 153.006 100.974 150.672 100.974 145.375 102.699 C 144.253 103.216 141.873 105.237 140.392 106.1 C 139.584 107.012 138.597 107.85 137.946 108.342 C 135.881 109.476 133.973 109.649 132.402 109.451 C 137.048 112.014 142.3 115.391 148.023 114.38 C 150.515 113.961 152.647 113.888 154.442 113.419 C 161.333 112.384 161.804 114.923 169.951 112.409 C 181.353 109.304 186.83 98.953 192.979 88.627 C 201.149 75.368 207.995 62.552 222 66.249 C 220.406 56.071 212.237 51.117 204.65 53.384 Z "
      fill="#e4405f"
      vector-effect="non-scaling-stroke"
      stroke-width="1.5"
      stroke="#fff"
      stroke-linejoin="miter"
      stroke-linecap="butt"
      stroke-miterlimit="4"/><path
      class="sto"
      d=" M 173.61 53.582 C 176.056 52.62 189.725 36.453 203.483 47.716 C 207.568 28.542 187.279 12.302 172.6 21.1 C 179.625 24.772 180.5 38.745 173.61 53.582 Z "
      fill="#e4405f"
      vector-effect="non-scaling-stroke"
      stroke-width="1.5"
      stroke="#fff"
      stroke-linejoin="miter"
      stroke-linecap="butt"
      stroke-miterlimit="4"/><path
      class="sto"
      d=" M 131.684 108.86 C 132.851 108.86 134.085 108.663 135.858 107.677 C 136.891 107.381 138.058 106.1 139.158 105.04 C 140.235 103.98 141.806 102.896 143.489 102.107 C 144.769 101.146 146.093 100.703 147.507 100.062 C 149.953 99.101 152.018 97.967 154.173 95.872 C 163.443 87.197 170.041 68.147 168.515 57.204 C 178.884 33.669 172.847 24.821 167.123 20.73 C 167.572 14.52 160.413 3.651 151.008 2 C 158.191 20.311 123.716 46.139 119.923 63.908 C 116.826 79.163 121.045 81.578 121.763 91.609 C 123.043 100.136 127.352 104.867 131.684 108.86 Z "
      fill="#e4405f"
      vector-effect="non-scaling-stroke"
      stroke-width="1.5"
      stroke="rgb(255,255,255)"
      stroke-linejoin="miter"
      stroke-linecap="butt"
      stroke-miterlimit="4"/><path
      class="sto"
      d=" M 124.457 104.991 C 122.033 101.121 119.339 95.798 119.968 89.267 C 118.015 95.601 119.429 101.59 119.631 112.433 L 120.147 113.986 C 105.424 131.459 83.855 141.145 67.089 144.496 C 68.031 142.328 68.503 139.567 69.041 136.511 C 69.894 131.484 70.904 125.594 74.855 120.961 C 89.488 107.554 84.371 95.995 78.064 87.764 C 57.146 102.428 61.186 118.299 69.805 124.09 C 68.144 127.91 67.448 131.952 66.819 135.575 C 65.944 140.676 65.226 144.817 61.657 145.531 L 61.657 145.531 C 58.874 146.024 56.091 146.468 53.308 146.912 C 47.921 147.774 42.602 148.637 37.462 149.77 L 37.44 149.77 C 24.04 152.728 11.718 157.558 2 169.412 L 3.481 172 C 5.389 169.683 9.496 165.839 9.496 165.839 C 9.496 165.839 10.753 165.247 16.97 160.861 C 23.188 156.474 28.866 155.044 37.799 153.073 L 37.799 153.073 C 42.108 152.259 50.457 150.732 53.622 150.214 C 56.405 149.77 59.211 149.327 62.016 148.834 L 62.016 148.834 L 62.084 148.809 C 72.902 146.912 85.426 143.092 97.299 136.438 C 100.127 147.7 111.461 160.343 128.878 143.856 C 118.644 144.201 113.773 130.572 103.067 132.938 C 110.047 128.354 116.624 122.686 122.302 115.736 C 124.636 115.81 127.262 116.919 128.699 117.067 C 134.377 117.362 142.659 119.58 147.866 116.796 C 140.213 117.929 130.719 114.799 124.457 104.991 Z "
      fill="#e4405f"
      vector-effect="non-scaling-stroke"
      stroke-width="1.5"
      stroke="rgb(255,255,255)"
      stroke-linejoin="miter"
      stroke-linecap="butt"
      stroke-miterlimit="4"/><path
      class="sto"
      d=" M 67.223 131.78 C 60.759 126.703 67.313 115.81 53.465 109.205 C 48.819 126.604 59.817 129.981 67.223 131.78 Z "
      fill="#e4405f"
      vector-effect="non-scaling-stroke"
      stroke-width="1.5"
      stroke="rgb(255,255,255)"
      stroke-linejoin="miter"
      stroke-linecap="butt"
      stroke-miterlimit="4"/></g>
  </g>
</svg>
