<?xml version="1.0" standalone="no"?><!-- Generator: Gravit.io --><svg xmlns="http://www.w3.org/2000/svg" xmlns:xlink="http://www.w3.org/1999/xlink" style="isolation:isolate" viewBox="0 0 45.885 44.072" width="45.885" height="44.072"><defs><clipPath id="_clipPath_shIOeClpYD0rh3C1LeWkfOBl4sLy6uSR"><rect width="45.885" height="44.072"/></clipPath></defs><g clip-path="url(#_clipPath_shIOeClpYD0rh3C1LeWkfOBl4sLy6uSR)"><rect width="45.885" height="44.072" style="fill:rgb(0,0,0)" fill-opacity="0"/><path d=" M 5.513 2.114 C 3.58 2.12 1.991 2.981 2 5.766 C 2.055 22.628 3.814 25.59 15.255 25.553 C 7.036 25.58 5.81 31.865 6.622 33.949 C 8.247 38.29 11.765 42.081 14.504 42.072 C 15.541 42.068 20.985 38.744 23.026 31.449 C 25.114 38.73 30.581 42.019 31.62 42.016 C 34.357 42.007 37.85 38.191 39.446 33.84 C 40.245 31.752 38.978 25.475 30.76 25.502 C 42.198 25.465 43.939 22.491 43.884 5.629 C 43.875 2.844 42.281 1.994 40.347 2 C 36.207 2.014 25.864 11.603 22.992 20.91 C 20.062 11.622 9.653 2.101 5.511 2.114 L 5.513 2.114 Z " fill="rgb(255,255,0)" vector-effect="non-scaling-stroke" stroke-width="1" stroke="rgb(255,255,255)" stroke-linejoin="miter" stroke-linecap="butt" stroke-miterlimit="4"/></g></svg>